# xmcd CD database file
#
# Track frame offsets:
#	150
#	2581
#	22083
#	40215
#	54651
#	69437
#	88234
#	99466
#	111520
#	127538
#	146957
#	161544
#	177386
#
# Disc length: 4556 seconds
#
# Revision: 2
# Processed by: cddbd v1.5.1PL0 Copyright (c) Steve Scherf et al.
# Submitted via: CDex 1.51
#
DISCID=b011ca0d
DTITLE=Truman Falls - Little Happyhells
DYEAR=2003
DGENRE=Country
TTITLE0=Welcome
TTITLE1=Little Happyhells
TTITLE2=Edge of the Earth
TTITLE3=Stars Collide
TTITLE4=Needlestacks
TTITLE5=My Beautiful Mistake
TTITLE6=Buttermouth
TTITLE7=Paper Anna
TTITLE8=Safe from harm
TTITLE9=Last man on the moon
TTITLE10=Maybe I
TTITLE11=Farewell
TTITLE12=data
EXTD=YEAR: 2003
EXTT0=
EXTT1=
EXTT2=
EXTT3=
EXTT4=
EXTT5=
EXTT6=
EXTT7=
EXTT8=
EXTT9=
EXTT10=
EXTT11=
EXTT12=
PLAYORDER=
